<svg xmlns="http://www.w3.org/2000/svg" xmlns:xlink="http://www.w3.org/1999/xlink" version="1.1" width="256" height="256" viewBox="0 0 256 256" xml:space="preserve">

<defs>
</defs>
<g style="stroke: none; stroke-width: 0; stroke-dasharray: none; stroke-linecap: butt; stroke-linejoin: miter; stroke-miterlimit: 10; fill: none; fill-rule: nonzero; opacity: 1;" transform="translate(1.4065934065934016 1.4065934065934016) scale(2.81 2.81)" >
	<path d="M 0 68.798 v 11.914 c 0 1.713 1.401 3.114 3.114 3.114 h 0 c 3.344 0 4.805 -2.642 4.805 -2.642 L 8.14 29.281 l 2.739 -2.827 l 72.894 -2.977 v -1.482 c 0 -2.396 -1.942 -4.338 -4.338 -4.338 H 50.236 c -1.15 0 -2.254 -0.457 -3.067 -1.27 l -8.943 -8.943 c -0.813 -0.813 -1.917 -1.27 -3.067 -1.27 H 4.338 C 1.942 6.174 0 8.116 0 10.512 v 7.146 v 2.332 V 68.798" style="stroke: none; stroke-width: 1; stroke-dasharray: none; stroke-linecap: butt; stroke-linejoin: miter; stroke-miterlimit: 10; fill: rgb(224,173,49); fill-rule: nonzero; opacity: 1;" transform=" matrix(1 0 0 1 0 0) " stroke-linecap="round" />
	<path d="M 3.114 83.826 L 3.114 83.826 c 1.713 0 3.114 -1.401 3.114 -3.114 V 27.81 c 0 -2.393 1.94 -4.333 4.333 -4.333 h 75.107 c 2.393 0 4.333 1.94 4.333 4.333 v 51.684 c 0 2.393 -1.94 4.333 -4.333 4.333 C 85.667 83.826 3.114 83.826 3.114 83.826 z" style="stroke: none; stroke-width: 1; stroke-dasharray: none; stroke-linecap: butt; stroke-linejoin: miter; stroke-miterlimit: 10; fill: rgb(255,200,67); fill-rule: nonzero; opacity: 1;" transform=" matrix(1 0 0 1 0 0) " stroke-linecap="round" />
	<path d="M 52.809 33.799 h -8.513 c -1.499 0 -2.717 1.219 -2.717 2.718 v 12.842 c -0.752 -0.095 -1.539 0.146 -2.114 0.723 l -6.27 6.27 c -0.48 0.48 -0.745 1.118 -0.744 1.798 c 0 0.679 0.265 1.316 0.745 1.795 l 13.56 13.563 c 0.959 0.96 2.635 0.96 3.594 0 L 63.91 59.942 c 0.479 -0.478 0.744 -1.115 0.744 -1.794 c 0 -0.68 -0.264 -1.317 -0.744 -1.798 l -6.271 -6.27 c -0.576 -0.576 -1.363 -0.818 -2.114 -0.723 V 36.516 C 55.525 35.017 54.307 33.799 52.809 33.799 z M 44.578 36.799 h 7.947 v 19.047 l 3.318 -3.318 l 5.62 5.619 L 48.552 71.06 L 35.64 58.146 l 5.62 -5.619 l 3.318 3.315 V 36.799 z" style="stroke: none; stroke-width: 1; stroke-dasharray: none; stroke-linecap: butt; stroke-linejoin: miter; stroke-miterlimit: 10; fill: rgb(184,53,53); fill-rule: nonzero; opacity: 1;" transform=" matrix(1 0 0 1 0 0) " stroke-linecap="round" />
</g>
</svg>